<svg width="155" height="95" viewBox="0 0 155 95" fill="none" xmlns="http://www.w3.org/2000/svg">
<path d="M34.9887 94.1128C53.2671 94.1128 69.3951 85.5112 69.3951 69.3832C69.3951 58.0936 60.1215 49.8952 49.2351 46.2664C59.3151 43.0408 67.9167 36.3208 67.9167 25.0312C67.9167 8.3656 50.8479 1.5112 34.9887 1.5112C19.1295 1.5112 2.0607 8.3656 2.0607 25.0312C2.0607 36.3208 10.6623 43.0408 20.7423 46.2664C9.8559 49.8952 0.5823 58.0936 0.5823 69.3832C0.5823 85.5112 16.5759 94.1128 34.9887 94.1128ZM34.9887 39.9496C29.6127 39.0088 18.0543 35.7832 18.0543 27.4504C18.0543 19.7896 25.3119 15.4888 34.9887 15.4888C44.6655 15.4888 51.9231 19.7896 51.9231 27.4504C51.9231 35.7832 40.4991 39.0088 34.9887 39.9496ZM34.9887 80.1352C24.7743 80.1352 16.5759 75.2968 16.5759 67.3672C16.5759 58.0936 29.3439 54.0616 34.9887 53.2552C40.4991 54.0616 53.4015 58.0936 53.4015 67.3672C53.4015 75.2968 44.9343 80.1352 34.9887 80.1352Z" fill="white"/>
<path d="M92.1736 3.48264H72.5764L103.125 46.7118L72 90.5174H91.0208L123.299 46.7118L92.1736 3.48264Z" fill="white"/>
<path d="M155 3.48264H135.979L115.806 31.1493L125.604 44.4062L155 3.48264Z" fill="white"/>
<path d="M154.424 90.5174L125.604 50.1701L115.806 62.8507L135.979 90.5174H154.424Z" fill="white"/>
</svg>
